@startuml US1012_class_diagram
'https://plantuml.com/class-diagram

title 1012 Class Diagram

interface AbstractUI {
# doShow()
}

class GenerateInterviewTemplateFileUI <<presentation>>  {
+ doShow()
}

class GenerateInterviewTemplateFileController <<application>> {
+ create()
+ getJobOpeningList()
+ exportTemplateFile(JobOpeningDTO jobOpeningDTO)
}

class InterviewTemplateManagerService <<service>> {
+ getInterviewModelFromJobOpening(JobOpeningDTO jobOpeningDTO)
+ generateNewTemplate(InterviewModel interviewModel)
}

class InterviewModelRepository <<persistence>>\n<<repository>> {
+ interviewModelFromDTO(JobOpeningDTO jobOpeningDTO)
}

class InterviewModelPlugin <<plugin>> {
+ newInterviewModel()
+ generateFile()
+ export()
}

class InterviewModelParser <<parser>> {
+ checkFileSyntax(File templateFile)
}

class AuthorizationService <<service>> {
+ loggedinUserWithPermissions(Role ... Action BaseRole.CUSTOMER_MANAGER)
}

class JobOpeningRepository <<Persistence>> <<Repository>> {
+ rebuild(JobOpening: entity)
+ getJobOpeningListMatchingCostumerCode(CustomerCode costumerCode)
}

class CustomerManagementService <<Service>> {
+ getAssignedCostumerCodesList(EmailAddress username)
}

class CustomerRepository  <<Persistence>> <<Repository>>  {
+ save(e: Customer)
+ getCostumersByUsername(EmailAddress username)
}


class Customer <<Domain>> <<Aggregate Root>> {
- CustomerCode customerCode
- CompanyName companyName
- EmailAddress costumerManagerEmail
+ customerCode()
+ companyName()
}

class JobOpeningManagementService <<Service>> {
+ getJobOpeningsFromCostumerCodes(List<CustomerCode> assignedCostumerCodesList)
}

class JobOpeningListDTOService <<Service>> {
+ convertToDTO(List<JobOpening> jobOpeningList)
}

class JobOpening <<Domain>> <<Aggregate Root>> {
- String function
- ContractType contractType
- WorkMode workMode
- Address jobOpeningAddress
- String jobReference
- Integer numVacancies
- String description
- File requirementsSpecificationsFile
+ create()
}


'Associations
AbstractUI <|.up. GenerateInterviewTemplateFileUI : implements
GenerateInterviewTemplateFileUI .left.> GenerateInterviewTemplateFileController

GenerateInterviewTemplateFileController .left.> AuthorizationService
GenerateInterviewTemplateFileController ...> CustomerManagementService
GenerateInterviewTemplateFileController ...> JobOpeningManagementService
GenerateInterviewTemplateFileController ..> JobOpeningListDTOService
GenerateInterviewTemplateFileController ..>InterviewTemplateManagerService

'Domain Layer
CustomerManagementService -down-> CustomerRepository
CustomerManagementService --> Customer
JobOpeningManagementService --> JobOpeningRepository
JobOpeningManagementService --> JobOpening
JobOpeningListDTOService --> JobOpening
JobOpeningRepository -> JobOpening

InterviewTemplateManagerService ..> InterviewModelRepository
InterviewTemplateManagerService ..> InterviewModelPlugin
InterviewModelPlugin ..> InterviewModelParser


@enduml