@startuml US1017_DM

skinparam classAttributeIconSize 0
hide empty attributes
skinparam classBackgroundColor beige
skinparam ArrowColor #222222


 class FullClassName <<(V,#FF8B40) value object>> {}

    class InterviewEvaluator <<(S,#4d91f7) service>> {}

package "<<aggregate>> Interview Model" {
    entity InterviewModel <<entity>> <<root>>  {}
    class InterviewModelName <<(V,#FF8B40) value object>> <<identifier>> {}
    class InterviewModelDescription <<(V,#FF8B40) value object>> {}
}

package "<<aggregate>> Customer Manager" {
    entity CustomerManager <<entity>> <<root>>  {}
}

package "<<aggregate>> Candidate" {
    entity Candidate <<entity>>  <<root>>{}
    class CandidateName <<(V,#FF8B40) value object>> {}
    class PhoneNumber <<(V,#FF8B40) value object>> {}
    class Email <<(V,#FF8B40) value object>> {}
}

package "<<aggregate>> Application" {
    entity Application <<entity>><<root>>  {}
    class ApplicationDate <<(V,#FF8B40) value object>> {}
    class ApplicationStatus <<(V,#FF8B40) value object>> {}
    class Interview <<(V,#FF8B40) value object>>   {}
    class InterviewAnswer <<(V,#FF8B40) value object>>   {}
    class InterviewResult <<(V,#FF8B40) value object>>   {}
    class Justification <<(V,#FF8B40) value object>>   {}
    class InterviewGrade <<(V,#FF8B40) value object>>   {}
    class RequirementAnswer <<(V,#FF8B40) value object>>   {}
    class RequirementResult <<(V,#FF8B40) value object>>   {}
    class InterviewAnswer <<(V,#FF8B40) value object>>   {}
    class Schedule <<(V,#FF8B40) value object>> {}
     class File <<(V,#FF8B40) value object>> {}
}

CustomerManager ---> "0..*" Application : overseas
CustomerManager --> "1..*" Candidate : manages
CustomerManager --> "1..*" InterviewModel : selects

Candidate --> "1..*" Application : submits
Candidate ---> "1" Email: identified by
Candidate --> "1" CandidateName: has
Candidate ---> "1" PhoneNumber: has

Application ---> "0..1" Interview : includes
Application --> "1" RequirementAnswer : includes
Application ---> "1" RequirementResult : includes
Application ---> "1..*" File : describes <
Application ---> "1" ApplicationDate : registered by
Application --> "1" ApplicationStatus : categorizes <

InterviewEvaluator .-> Application
InterviewEvaluator .--> InterviewModel

Interview ---> "1" InterviewAnswer: described in
Interview ---> "1" InterviewResult: classifies <
InterviewResult -> "1" InterviewGrade: grades <
InterviewResult --> "1" Justification: justifies <
Interview --> "1" Schedule : follows a

InterviewModel --> "1" InterviewModelName: identifies <
InterviewModel --> "1" InterviewModelDescription: describes <
InterviewModel --> "1" FullClassName: configures <

@enduml