@startuml
'https://plantuml.com/class-diagram

skinparam classAttributeIconSize 0
hide empty attributes
skinparam classBackgroundColor beige
skinparam ArrowColor #222222



'SHARED VALUE OBJETS
    class PluginJarFile <<(V,#FF8B40) value object>> {}

package "<<aggregate>> Interview Model" {
    entity InterviewModel <<entity>> <<root>>  {}
    class InterviewModelName <<(V,#FF8B40) value object>> <<identifier>> {}
    class InterviewModelDescription <<(V,#FF8B40) value object>> {}

}
package "<<aggregate>> Requirement Specification" {
    entity RequirementSpecification <<entity>> <<root>>  {}
    class RequirementName <<(V,#FF8B40) value object>> <<identifier>> {}
    class RequirementDescription <<(V,#FF8B40) value object>> {}
}
package "<<aggregate>> Customer Manager" {
    entity CustomerManager <<entity>> <<root>>  {}
}

'--
CustomerManager --> "1..*" InterviewModel : selects
CustomerManager ---> "1..*" RequirementSpecification : selects
'--
InterviewModel --> "1" InterviewModelName: identifies <
InterviewModel --> "1" InterviewModelDescription: describes <
InterviewModel --> "1" PluginJarFile: configures <
'--
RequirementSpecification --> "1" RequirementName: identifies <
RequirementSpecification --> "1" RequirementDescription: describes <
RequirementSpecification --> "1" PluginJarFile: configures <
'--
@enduml