@startuml
'https://plantuml.com/class-diagram

skinparam classAttributeIconSize 0
hide empty attributes
skinparam classBackgroundColor beige
skinparam ArrowColor #222222



'SHARED VALUE OBJETS

    class Address <<(V,#FF8B40) value object>> {}

 class FullClassName <<(V,#FF8B40) value object>> {}
  class ConfigFileName <<(V,#FF8B40) value object>> {}
'SERVICES
    class RequirementEvaluator <<(S,#4d91f7) service>> {}
    class InterviewEvaluator <<(S,#4d91f7) service>> {}

package "<<aggregate>> Interview Model" {
    entity InterviewModel <<entity>> <<root>>  {}
    class InterviewModelName <<(V,#FF8B40) value object>> <<identifier>> {}
    class InterviewModelDescription <<(V,#FF8B40) value object>> {}

}
package "<<aggregate>> Requirement Specification" {
    entity RequirementSpecification <<entity>> <<root>>  {}
    class RequirementName <<(V,#FF8B40) value object>> <<identifier>> {}
    class RequirementDescription <<(V,#FF8B40) value object>> {}
}
'AGGREGATES
package "<<aggregate>> Job Opening" {
    entity JobOpening <<entity>> <<root>> {}
    class JobFunction <<(V,#FF8B40) value object>> {}
    class JobOpeningStatus <<(V,#FF8B40) value object>> {}
    class NumberVacancy <<(V,#FF8B40) value object>> {}
       class Description <<(V,#FF8B40) value object>> {}
     class JobReference <<(V,#FF8B40) value object>> <<identifier>> {}

}

package "<<aggregate>> Rank" {
    entity Rank <<entity>> <<root>> {}
    class RankOrder <<(V,#FF8B40) value object>>{}
}

package "<<aggregate>> Administrator" {
    entity Administrator <<entity>> <<root>>  {}
}
package "<<aggregate>> Workmode" {
    entity Mode <<entity>> <<root>> {}
    class WorkModeDenomination <<(V,#FF8B40) value object>> {}
}
package "<<aggregate>> Contract Type" {
    entity ContractType <<entity>> <<root>> {}
    class ContractTypeDenomination <<(V,#FF8B40) value object>> {}
}
package "<<aggregate>> Customer Manager" {
    entity CustomerManager <<entity>> <<root>>  {}
}
package "<<aggregate>> Customer" {
    entity Customer <<entity>> <<root>>  {}
    class CustomerCode <<(V,#FF8B40) value object>> <<identifier>> {}
    class CompanyName <<(V,#FF8B40) value object>> {}
}
package "<<aggregate>> Customer Representative" {
    entity CustomerRepresentative <<entity>> <<root>> {}
    }
package "<<aggregate>> Operator" {
    entity Operator <<entity>> <<root>> {}
}
    package "<<aggregate>> Candidate" {
    entity Candidate <<entity>>  <<root>>{}
    class CandidateName <<(V,#FF8B40) value object>> {}
    class PhoneNumber <<(V,#FF8B40) value object>> {}
    class Email <<(V,#FF8B40) value object>> {}

}

package "<<aggregate>> Application" {
    entity Application <<entity>><<root>>  {}
    class ApplicationDate <<(V,#FF8B40) value object>> {}
    class ApplicationStatus <<(V,#FF8B40) value object>> {}
    class Interview <<(V,#FF8B40) value object>>   {}
    class InterviewAnswer <<(V,#FF8B40) value object>>   {}
    class InterviewResult <<(V,#FF8B40) value object>>   {}
    class Justification <<(V,#FF8B40) value object>>   {}
    class InterviewGrade <<(V,#FF8B40) value object>>   {}
    class RequirementAnswer <<(V,#FF8B40) value object>>   {}
    class RequirementResult <<(V,#FF8B40) value object>>   {}
    class InterviewAnswer <<(V,#FF8B40) value object>>   {}
    class Schedule <<(V,#FF8B40) value object>> {}
     class File <<(V,#FF8B40) value object>> {}
}

package "<<aggregate>> Notification" {
    entity Notification <<entity>> <<root>> {}
    class NotificationBody <<(V,#FF8B40) value object>>{}
    class NotificationType <<(V,#FF8B40) value object>>{}
    class NotificationRecipient <<(V,#FF8B40) value object>>{}
    class NotificationStatus <<(V,#FF8B40) value object>>{}
    class NotificationDate <<(V,#FF8B40) value object>>{}
}

package "<<aggregate>> Recruitment Process" {
    entity RecruitmentProcess <<entity>> <<root>> {}
    class RecruitmentPeriod <<(V,#FF8B40) value object>> {}
    class Phase <<(V,#FF8B40) value object>> {}
    class PhasePeriod <<(V,#FF8B40) value object>> {}
    class PhaseDescription <<(V,#FF8B40) value object>> {}
    class PhaseType <<(V,#FF8B40) value object>> {}
    class RecruitmentProcessStatus <<(V,#FF8B40) value object>> {}
}


'ASSOCIATIONS
Administrator -> "1..*" Customer: manages
Administrator --> "1..*" CustomerManager : manages
Administrator -> "1..*" Operator : manages
Administrator -> "1..*" Customer : registers
'--
Customer --> "1..*" JobOpening : sends
Customer --> "1" CompanyName : is described by
Customer --> "1" Address : is located at
Customer --> "1" CustomerCode : is identified by
'--
CustomerManager "1" <--  Customer: manages >
CustomerManager --> "1..*" JobOpening: registers
CustomerManager ---> "0..*" Application : overseas
CustomerManager --> "1..*" RecruitmentProcess : sets up
CustomerManager --> "1..*" Candidate : manages
CustomerManager --> "1..*" InterviewModel : selects
CustomerManager ---> "1..*" RequirementSpecification : selects
'--
Operator --> "0..*" Candidate : registers
Operator --> "0..*" Application : registers
'--
Candidate --> "1..*" Application : submits
Candidate --> "1..*" JobOpening : applies for
Candidate ---> "1" Email: identified by
Candidate --> "1" CandidateName: has
Candidate ---> "1" PhoneNumber: has
'--
CustomerRepresentative --> "1" Customer :  represents
'--
JobOpening ---> "1"  JobReference : includes
JobOpening --> "1"  Mode : includes
JobOpening --> "1"  NumberVacancy : includes
JobOpening ---> "1"  Address : includes
JobOpening --> "1"  JobFunction : includes
JobOpening ---> "1"  Description : includes
JobOpening ---> "1"  ContractType : includes
JobOpening --> "1" JobOpeningStatus : classified by
JobOpening ---> "1"  RequirementSpecification : includes
JobOpening -> "1"  InterviewModel : includes
JobOpening --> "1"  RecruitmentProcess : includes
JobOpening --> "1"  Application : associated to <
'--
ContractType ---> "1"  ContractTypeDenomination : includes
'--
Mode ---> "1"  WorkModeDenomination : includes
'__
JobOpening ---> "1"  Rank : includes
Rank --> "*" RankOrder : encompasses
RankOrder --> "1" Application : rates
'--
RecruitmentProcess --> "1" RecruitmentPeriod : goes on for
RecruitmentProcess ---> "4..5" Phase : encompasses
RecruitmentProcess --> "1" RecruitmentProcessStatus : describes <
'--
Phase --> "1" PhasePeriod :  goes on for
Phase --> "1" PhaseType : categorizes <
Phase --> "1" PhaseDescription : describes <
'--
Application ---> "0..1" Interview : includes
Application --> "1" RequirementAnswer : includes
Application ---> "1" RequirementResult : includes
Application ---> "1..*" File : describes <
Application ---> "1" ApplicationDate : registered by
Application --> "1" ApplicationStatus : categorizes <
'--
RequirementEvaluator .--> Application
RequirementEvaluator .-> RequirementSpecification
'--
InterviewEvaluator .-> Application
InterviewEvaluator .--> InterviewModel
'--
Interview ---> "1" InterviewAnswer: described in
Interview ---> "1" InterviewResult: classifies <
InterviewResult -> "1" InterviewGrade: grades <
InterviewResult --> "1" Justification: justifies <
Interview --> "1" Schedule : follows a
'--
InterviewModel --> "1" InterviewModelName: identifies <
InterviewModel --> "1" InterviewModelDescription: describes <
InterviewModel --> "1" FullClassName: configures <
InterviewModel --> "1" ConfigFileName: configures <
'--
RequirementSpecification --> "1" RequirementName: identifies <
RequirementSpecification --> "1" RequirementDescription: describes <
RequirementSpecification --> "1" FullClassName: configures <
RequirementSpecification --> "1" ConfigFileName: configures <
'--
Notification ---> NotificationBody : has
Notification --> NotificationRecipient : has
Notification --> NotificationStatus : has
Notification ---> NotificationDate : has
Notification -> NotificationType : has
'__
Notification --> "1" Candidate : notifies
Notification --> "1" Customer : notifies
@enduml